<?xml version="1.0" encoding="UTF-8" standalone="no"?>
<!-- Created with Inkscape (http://www.inkscape.org/) -->

<svg
   width="185.55559mm"
   height="76.809776mm"
   viewBox="0 0 185.55559 76.809776"
   version="1.1"
   id="svg1"
   sodipodi:docname="Articulated_Systems_logo.svg"
   inkscape:version="1.3.1 (9b9bdc1480, 2023-11-25, custom)"
   xmlns:inkscape="http://www.inkscape.org/namespaces/inkscape"
   xmlns:sodipodi="http://sodipodi.sourceforge.net/DTD/sodipodi-0.dtd"
   xmlns="http://www.w3.org/2000/svg"
   xmlns:svg="http://www.w3.org/2000/svg">
  <sodipodi:namedview
     id="namedview1"
     pagecolor="#ffffff"
     bordercolor="#000000"
     borderopacity="0.25"
     inkscape:showpageshadow="2"
     inkscape:pageopacity="0.0"
     inkscape:pagecheckerboard="0"
     inkscape:deskcolor="#d1d1d1"
     inkscape:document-units="mm"
     showgrid="false"
     inkscape:zoom="0.74297138"
     inkscape:cx="349.94618"
     inkscape:cy="200.54608"
     inkscape:window-width="1848"
     inkscape:window-height="1016"
     inkscape:window-x="1992"
     inkscape:window-y="27"
     inkscape:window-maximized="1"
     inkscape:current-layer="svg1" />
  <defs
     id="defs1">
    <clipPath
       clipPathUnits="userSpaceOnUse"
       id="clipPath6-5">
      <path
         d="M 0,0 H 365760 V 205740 H 0 Z"
         transform="matrix(0.00262467,0,0,0.00262467,-109.46982,-242.27108)"
         id="path6-6" />
    </clipPath>
    <clipPath
       clipPathUnits="userSpaceOnUse"
       id="clipPath8-2">
      <path
         d="M 0,0 H 365760 V 205740 H 0 Z"
         transform="matrix(0.00262467,0,0,0.00262467,-109.46982,-395.87109)"
         id="path8-9" />
    </clipPath>
    <clipPath
       clipPathUnits="userSpaceOnUse"
       id="clipPath10-1">
      <path
         d="M 0,0 H 365760 V 205740 H 0 Z"
         id="path10-2" />
    </clipPath>
    <clipPath
       clipPathUnits="userSpaceOnUse"
       id="clipPath12-7">
      <path
         d="M 0,0 H 365760 V 205740 H 0 Z"
         id="path12-0" />
    </clipPath>
    <clipPath
       clipPathUnits="userSpaceOnUse"
       id="clipPath14-9">
      <path
         d="M 0,0 H 365760 V 205740 H 0 Z"
         id="path14-3" />
    </clipPath>
    <clipPath
       clipPathUnits="userSpaceOnUse"
       id="clipPath16-6">
      <path
         d="M 0,0 H 365760 V 205740 H 0 Z"
         id="path16-0" />
    </clipPath>
    <clipPath
       clipPathUnits="userSpaceOnUse"
       id="clipPath18-6">
      <path
         d="M 0,0 H 365760 V 205740 H 0 Z"
         id="path18-2" />
    </clipPath>
    <clipPath
       clipPathUnits="userSpaceOnUse"
       id="clipPath20-6">
      <path
         d="M 0,0 H 365760 V 205740 H 0 Z"
         id="path20-1" />
    </clipPath>
    <clipPath
       clipPathUnits="userSpaceOnUse"
       id="clipPath22-8">
      <path
         d="M 0,0 H 365760 V 205740 H 0 Z"
         id="path22-7" />
    </clipPath>
    <clipPath
       clipPathUnits="userSpaceOnUse"
       id="clipPath24-9">
      <path
         d="M 0,0 H 365760 V 205740 H 0 Z"
         id="path24-2" />
    </clipPath>
    <clipPath
       clipPathUnits="userSpaceOnUse"
       id="clipPath26-0">
      <path
         d="M 0,0 H 365760 V 205740 H 0 Z"
         id="path26-2" />
    </clipPath>
    <clipPath
       clipPathUnits="userSpaceOnUse"
       id="clipPath28-3">
      <path
         d="M 0,0 H 365760 V 205740 H 0 Z"
         id="path28-7" />
    </clipPath>
    <clipPath
       clipPathUnits="userSpaceOnUse"
       id="clipPath30-5">
      <path
         d="M 0,0 H 365760 V 205740 H 0 Z"
         id="path30-9" />
    </clipPath>
    <clipPath
       clipPathUnits="userSpaceOnUse"
       id="clipPath32-2">
      <path
         d="M 0,0 H 365760 V 205740 H 0 Z"
         id="path32-2" />
    </clipPath>
    <clipPath
       clipPathUnits="userSpaceOnUse"
       id="clipPath34-8">
      <path
         d="M 0,0 H 365760 V 205740 H 0 Z"
         id="path34-9" />
    </clipPath>
    <clipPath
       clipPathUnits="userSpaceOnUse"
       id="clipPath6-5-7">
      <path
         d="M 0,0 H 365760 V 205740 H 0 Z"
         transform="matrix(0.00262467,0,0,0.00262467,-109.46982,-242.27108)"
         id="path6-6-5" />
    </clipPath>
    <clipPath
       clipPathUnits="userSpaceOnUse"
       id="clipPath8-2-3">
      <path
         d="M 0,0 H 365760 V 205740 H 0 Z"
         transform="matrix(0.00262467,0,0,0.00262467,-109.46982,-395.87109)"
         id="path8-9-5" />
    </clipPath>
    <clipPath
       clipPathUnits="userSpaceOnUse"
       id="clipPath10-1-6">
      <path
         d="M 0,0 H 365760 V 205740 H 0 Z"
         id="path10-2-2" />
    </clipPath>
    <clipPath
       clipPathUnits="userSpaceOnUse"
       id="clipPath12-7-9">
      <path
         d="M 0,0 H 365760 V 205740 H 0 Z"
         id="path12-0-1" />
    </clipPath>
    <clipPath
       clipPathUnits="userSpaceOnUse"
       id="clipPath14-9-2">
      <path
         d="M 0,0 H 365760 V 205740 H 0 Z"
         id="path14-3-7" />
    </clipPath>
    <clipPath
       clipPathUnits="userSpaceOnUse"
       id="clipPath16-6-0">
      <path
         d="M 0,0 H 365760 V 205740 H 0 Z"
         id="path16-0-9" />
    </clipPath>
    <clipPath
       clipPathUnits="userSpaceOnUse"
       id="clipPath18-6-3">
      <path
         d="M 0,0 H 365760 V 205740 H 0 Z"
         id="path18-2-6" />
    </clipPath>
    <clipPath
       clipPathUnits="userSpaceOnUse"
       id="clipPath20-6-0">
      <path
         d="M 0,0 H 365760 V 205740 H 0 Z"
         id="path20-1-6" />
    </clipPath>
    <clipPath
       clipPathUnits="userSpaceOnUse"
       id="clipPath22-8-2">
      <path
         d="M 0,0 H 365760 V 205740 H 0 Z"
         id="path22-7-6" />
    </clipPath>
    <clipPath
       clipPathUnits="userSpaceOnUse"
       id="clipPath24-9-1">
      <path
         d="M 0,0 H 365760 V 205740 H 0 Z"
         id="path24-2-8" />
    </clipPath>
    <clipPath
       clipPathUnits="userSpaceOnUse"
       id="clipPath26-0-7">
      <path
         d="M 0,0 H 365760 V 205740 H 0 Z"
         id="path26-2-9" />
    </clipPath>
    <clipPath
       clipPathUnits="userSpaceOnUse"
       id="clipPath28-3-2">
      <path
         d="M 0,0 H 365760 V 205740 H 0 Z"
         id="path28-7-0" />
    </clipPath>
    <clipPath
       clipPathUnits="userSpaceOnUse"
       id="clipPath30-5-2">
      <path
         d="M 0,0 H 365760 V 205740 H 0 Z"
         id="path30-9-3" />
    </clipPath>
    <clipPath
       clipPathUnits="userSpaceOnUse"
       id="clipPath32-2-7">
      <path
         d="M 0,0 H 365760 V 205740 H 0 Z"
         id="path32-2-5" />
    </clipPath>
    <clipPath
       clipPathUnits="userSpaceOnUse"
       id="clipPath34-8-9">
      <path
         d="M 0,0 H 365760 V 205740 H 0 Z"
         id="path34-9-2" />
    </clipPath>
  </defs>
  <g
     id="layer1"
     transform="translate(-13.756156,-62.510457)">
    <path
       id="path5"
       d="M 37.123925,-95.876548 H 51.20205 l 31.093749,88.3281217 7.9375,1.28125 v 6.2656248 H 56.45205 v -6.2656248 l 10.624999,-1.28125 -6.015624,-18.9531247 H 23.686426 l -6.03125,18.9531247 11.015625,1.28125 v 6.2656248 H -1.6573234 v -6.2656248 l 7.9218747,-1.28125 z m 8.0625,20.484374 -3.203125,-11.265625 -3.078125,11.515625 -12.921874,41.093749 h 32.640624 z m 49.406248,69.1249977 9.593747,-0.78125 V -61.18905 l -9.203122,-2.296874 v -6.921875 l 17.656252,-2.296875 h 0.25 l 2.82812,2.296875 v 2.3125 l -0.39062,9.984374 h 0.39062 c 0.85157,-1.445312 2.39063,-3.320312 4.60938,-5.624999 2.21875,-2.3125 5.07031,-4.425782 8.5625,-6.34375 3.5,-1.914063 7.30078,-2.875 11.40625,-2.875 1.69531,0 3.10156,0.214844 4.21875,0.640625 v 14.328124 c -0.59375,-0.425781 -1.55469,-0.832031 -2.875,-1.21875 -1.32422,-0.382812 -2.79688,-0.578125 -4.42188,-0.578125 -7.08594,0 -13.65625,2.179688 -19.71875,6.53125 v 46.0781237 l 16.26563,1.03125 v 6.1406248 H 94.592673 Z m 80.246087,7.5468748 c -4.85546,0 -8.48046,-1.10937501 -10.87499,-3.3281249 -2.38672,-2.21875 -3.57813,-6.0156248 -3.57813,-11.3906246 v -49.156248 h -9.21875 v -5.765625 c 0.42578,-0.08203 1.61719,-0.378907 3.57813,-0.890625 1.96875,-0.507813 3.28906,-0.976563 3.96875,-1.40625 1.36328,-0.769531 2.42968,-2.304688 3.20312,-4.609375 0.6875,-1.625 1.5,-4.226562 2.4375,-7.8125 0.9375,-3.582031 1.48828,-5.710937 1.65625,-6.390625 h 7.5625 l 0.25,18.421875 h 21.375 v 8.453125 h -21.375 v 39.296873 c 0,4.867188 0.14453,8.28125 0.4375,10.25 0.30078,1.960937 0.94141,3.2421873 1.92187,3.8437498 0.98829,0.59375 2.67579,0.890625 5.0625,0.890625 2.30079,0 4.83594,-0.296875 7.60938,-0.890625 2.78125,-0.6015625 4.9375,-1.2499998 6.46875,-1.9374998 l 1.92187,5.7656247 c -2.05468,1.5312499 -5.35937,3.0273436 -9.92187,4.48437483 -4.5625,1.44531245 -8.72656,2.17187497 -12.48438,2.17187497 z m 45.31641,-85.1249975 c -2.73047,0 -4.77734,-0.765625 -6.14063,-2.296875 -1.36718,-1.539062 -2.04687,-3.503906 -2.04687,-5.890625 0,-2.726562 0.82812,-4.988281 2.48437,-6.781249 1.66407,-1.789062 3.95313,-2.687502 6.85938,-2.687502 2.90625,0 5.03906,0.77344 6.40625,2.312502 1.36328,1.53125 2.04687,3.492187 2.04687,5.874999 0,2.90625 -0.83593,5.214844 -2.5,6.921875 -1.66796,1.699219 -3.99609,2.546875 -6.98437,2.546875 z m -5.10938,22.656249 -9.73437,-2.296874 v -6.78125 l 19.84375,-2.4375 h 0.25 l 2.95312,2.296875 v 63.1093727 l 10.23438,1.03125 v 6.2656248 h -33.92188 v -6.2656248 l 10.375,-1.15625 z m 31.09375,26.109375 c 0,-7.082031 1.38282,-13.476562 4.15625,-19.1875 2.78125,-5.71875 6.87891,-10.257812 12.29688,-13.624999 5.41406,-3.375 11.92187,-5.0625 19.51562,-5.0625 3.67578,0 6.83203,0.34375 9.46875,1.03125 2.64453,0.679687 5.80469,1.609375 9.48438,2.796875 l -0.51563,19.718749 h -8.32812 l -2.8125,-13.0625 c -0.51172,-2.382812 -3.75,-3.578124 -9.71875,-3.578124 -5.98047,0 -10.69922,2.414062 -14.15625,7.234374 -3.44922,4.824219 -5.17188,11.671875 -5.17188,20.546875 0,10.062499 1.9375,17.718749 5.8125,22.968749 3.88282,5.25 8.94141,7.8749997 15.17188,7.8749997 3.58203,0 6.97265,-0.5507812 10.17187,-1.6562499 3.20703,-1.1132808 5.96094,-2.4414058 8.26563,-3.9843748 l 2.42187,5.1249998 c -2.30469,2.3867186 -5.69531,4.5429686 -10.17187,6.4687497 -4.48047,1.91406248 -9.02344,2.875 -13.625,2.875 -7,0 -12.91406,-1.578125 -17.73438,-4.7343749 -4.82422,-3.1562499 -8.45312,-7.4843746 -10.89062,-12.9843746 -2.42969,-5.507812 -3.64063,-11.765625 -3.64063,-18.765624 z M 371.58485,1.1546985 c -2.38672,0 -4.15625,-0.46875002 -5.3125,-1.40624999 -1.15625,-0.93750001 -1.73437,-2.47265621 -1.73437,-4.60937481 v -4.3593749 c -2.8125,2.8242187 -6.33594,5.3046873 -10.5625,7.4374998 -4.21875,2.12499989 -8.46485,3.1874999 -12.73438,3.1874999 -7.92968,0 -13.55859,-2.12890623 -16.89062,-6.3906248 -3.32422,-4.2695312 -4.98438,-11.3124997 -4.98438,-21.1249997 v -37.124998 l -7.17187,-2.046875 v -5.625 l 17.92187,-1.671875 h 0.125 l 2.4375,1.53125 v 43.906248 c 0,4.949219 0.35938,8.8125 1.07813,11.59375 0.72656,2.773437 2.00781,4.820312 3.84375,6.1406248 1.83203,1.3242187 4.5,1.9843749 8,1.9843749 3.41406,0 6.61328,-0.7226562 9.59375,-2.1718749 2.98828,-1.4570308 5.59375,-3.1640628 7.8125,-5.1249998 v -48.515623 l -9.21875,-2.046875 v -5.625 l 19.45312,-1.671875 h 0.14063 l 2.9375,1.53125 v 64.5156227 h 7.6875 l -0.14063,5.76562482 c -2.38672,0.59374998 -4.45312,1.06249997 -6.20312,1.40624996 -1.75,0.34374999 -3.77735,0.51562502 -6.07813,0.51562502 z m 32.00391,-96.6406215 -10.375,-1.40625 v -5.515627 l 20.60937,-2.42187 h 0.25 l 2.82813,1.92187 v 95.6093737 l 10.875,1.03125 v 6.2656248 h -34.5625 v -6.2656248 l 10.375,-1.15625 z m 33.28125,76.281247 c 0,-8.019531 4.00781,-13.925781 12.03125,-17.718749 8.01953,-3.800781 18.17187,-5.832031 30.45312,-6.09375 V -46.5953 c 0,-4.007812 -0.42969,-7.164062 -1.28125,-9.46875 -0.84375,-2.300781 -2.3125,-3.984375 -4.40625,-5.046875 -2.09375,-1.070312 -5.0625,-1.609374 -8.90625,-1.609374 -4.34375,0 -8.24609,0.621093 -11.70312,1.859374 -3.46094,1.230469 -6.89844,2.746094 -10.3125,4.546875 l -3.1875,-6.656249 c 1.10156,-0.945313 3.14843,-2.1875 6.14062,-3.71875 2.98828,-1.53125 6.44141,-2.894532 10.35938,-4.09375 3.92578,-1.195313 7.85156,-1.796875 11.78125,-1.796875 6.0625,0 10.86328,0.835937 14.40624,2.5 3.53907,1.667968 6.07813,4.335937 7.60938,7.999999 1.53906,3.667969 2.3125,8.574219 2.3125,14.71875 v 41.0937487 h 7.54687 v 5.62499982 c -1.71093,0.42968748 -3.86718,0.85156247 -6.46875,1.28124996 -2.60546,0.42578122 -4.88671,0.64062502 -6.84375,0.64062502 -2.38671,0 -4.00781,-0.36718753 -4.85937,-1.09375001 -0.85547,-0.71874998 -1.28125,-2.31640619 -1.28125,-4.79687489 v -4.2187498 c -2.5625,2.5624999 -5.70312,4.9140623 -9.42187,7.0468748 -3.71094,2.12499989 -7.90625,3.1874999 -12.59375,3.1874999 -6.14844,0 -11.2461,-1.76953124 -15.29688,-5.3124999 -4.05469,-3.5390624 -6.07812,-8.6406246 -6.07812,-15.2968746 z m 26.875,11.9062497 c 2.21875,0 4.77343,-0.6796874 7.67187,-2.0468749 2.90625,-1.3632808 5.55078,-2.9843748 7.9375,-4.8593748 V -36.2203 c -9.30469,0 -16.32422,1.433593 -21.0625,4.296875 -4.73047,2.855468 -7.09375,6.585937 -7.09375,11.187499 0,4.605469 1.12891,7.996094 3.39063,10.171875 2.25781,2.1796873 5.3125,3.2656247 9.15625,3.2656247 z m 66.80859,8.5781248 c -4.85547,0 -8.48047,-1.10937501 -10.875,-3.3281249 -2.38672,-2.21875 -3.57813,-6.0156248 -3.57813,-11.3906246 v -49.156248 h -9.21875 v -5.765625 c 0.42578,-0.08203 1.61719,-0.378907 3.57813,-0.890625 1.96875,-0.507813 3.28906,-0.976563 3.96875,-1.40625 1.36328,-0.769531 2.42968,-2.304688 3.20312,-4.609375 0.6875,-1.625 1.5,-4.226562 2.4375,-7.8125 0.9375,-3.582031 1.48828,-5.710937 1.65625,-6.390625 h 7.5625 l 0.25,18.421875 h 21.375 v 8.453125 h -21.375 v 39.296873 c 0,4.867188 0.14453,8.28125 0.4375,10.25 0.30078,1.960937 0.94141,3.2421873 1.92188,3.8437498 0.98828,0.59375 2.67578,0.890625 5.0625,0.890625 2.30078,0 4.83593,-0.296875 7.60937,-0.890625 2.78125,-0.6015625 4.9375,-1.2499998 6.46875,-1.9374998 l 1.92188,5.7656247 c -2.05469,1.5312499 -5.35938,3.0273436 -9.92188,4.48437483 -4.5625,1.44531245 -8.72656,2.17187497 -12.48437,2.17187497 z m 61.70312,0.125 c -10.32422,0 -18.19922,-3.3671874 -23.625,-10.1093747 -5.41797,-6.7382808 -8.125,-15.7421868 -8.125,-27.0156238 0,-7.414063 1.40625,-13.941406 4.21875,-19.578125 2.82031,-5.632812 6.76953,-9.984374 11.84375,-13.046874 5.08203,-3.070313 10.86328,-4.609375 17.34375,-4.609375 7.9375,0 14.10156,2.199219 18.5,6.59375 4.39453,4.386718 6.72266,10.679687 6.98437,18.874999 0,5.199219 -0.30468,9.167968 -0.90625,11.90625 h -44.03124 c 0.17578,8.449218 2.14062,15.257812 5.89062,20.421874 3.75,5.15625 9.08203,7.7343747 16,7.7343747 3.41406,0 6.97656,-0.6171874 10.6875,-1.8593749 3.70703,-1.2382808 6.58594,-2.7109378 8.64062,-4.4218748 l 2.4375,5.6406248 c -2.48046,2.5624999 -6.15234,4.7812498 -11.01562,6.6562497 -4.86719,1.87499998 -9.8125,2.8125 -14.84375,2.8125 z M 605.30359,-42.37655 c 0.25782,-1.789063 0.39063,-3.625 0.39063,-5.5 -0.0859,-5.539062 -1.25781,-9.910156 -3.51563,-13.109375 -2.26171,-3.207031 -5.82421,-4.812499 -10.68749,-4.812499 -4.94922,0 -8.89844,1.792968 -11.84375,5.374999 -2.94922,3.585938 -4.63672,9.601563 -5.0625,18.046875 z m 52.74219,43.7812485 c -5.11719,0 -9.80859,-1.27734376 -14.07812,-3.8281249 -4.27344,-2.5624999 -7.66797,-6.4882811 -10.1875,-11.7812496 -2.51172,-5.289062 -3.76563,-11.820312 -3.76563,-19.593749 0,-7.25 1.49219,-13.859375 4.48438,-19.828125 2.98828,-5.976562 7.27343,-10.691406 12.85937,-14.140624 5.59375,-3.457031 12.1875,-5.1875 19.78125,-5.1875 4.35156,0 8.32031,0.46875 11.90625,1.40625 v -23.937499 l -13.0625,-1.546875 v -5.500002 l 23.04687,-2.29687 h 0.375 l 2.8125,2.04687 v 96.2499987 h 7.4375 v 5.89062482 c -2.74218,0.59374998 -5.11718,1.06249996 -7.125,1.40624995 -2,0.34375003 -4.10937,0.51562503 -6.32812,0.51562503 -2.21875,0 -3.79688,-0.38671878 -4.73438,-1.15625001 -0.9375,-0.76953122 -1.40625,-2.39062489 -1.40625,-4.85937489 v -4.0937498 c -2.38671,2.8984374 -5.52343,5.3281248 -9.40624,7.2968747 -3.88672,1.95703123 -8.08985,2.9375 -12.60938,2.9375 z m 5.125,-9.0937498 c 3.32031,0 6.42969,-0.7421874 9.32812,-2.2343749 2.90625,-1.4882808 5.08594,-3.2187498 6.54688,-5.1874998 v -46.843749 c -0.6875,-1.019531 -2.29297,-1.937499 -4.8125,-2.749999 -2.51172,-0.8125 -5.17969,-1.21875 -8,-1.21875 -6.65625,0 -11.96875,2.542968 -15.9375,7.624999 -3.96094,5.074219 -5.9375,12.902344 -5.9375,23.484375 0,9.218749 1.74219,16.046874 5.23438,20.484374 3.5,4.4296873 8.02343,6.6406247 13.57812,6.6406247 z m 0,0"
       style="fill:#000000;fill-opacity:1;fill-rule:nonzero;stroke:none"
       aria-label="Articulated "
       transform="matrix(0.26458333,0,0,0.26458333,14.194656,90.24664)"
       clip-path="url(#clipPath6-5-7)" />
    <path
       id="path7"
       d="m 37.123925,1.406256 c -4.4375,0 -8.406249,-0.3867187 -11.906249,-1.15624993 -3.5,-0.75781247 -7.339844,-1.78124997 -11.515625,-3.06249987 -2.5625,-0.9375 -4.4843748,-1.453125 -5.7656248,-1.546875 l 1.015625,-23.1562492 h 8.2031248 l 2.171875,16.640624 c 1.445312,1.3671879 3.8125,2.5859378 7.09375,3.6562503 3.289062,1.0625 6.898437,1.59375 10.828124,1.59375 6.476563,0 11.40625,-1.453125 14.78125,-4.3593749 3.375,-2.9062504 5.0625,-6.9140624 5.0625,-12.0312494 0,-3.332031 -0.921875,-6.191406 -2.765625,-8.578125 -1.835938,-2.382812 -4.265625,-4.429687 -7.296875,-6.140625 -3.023437,-1.707031 -7.179687,-3.710937 -12.46875,-6.015625 -4.781249,-2.132812 -8.945312,-4.312499 -12.484374,-6.531249 -3.542969,-2.21875 -6.617187,-5.179688 -9.21875,-8.890625 -2.605469,-3.71875 -3.9062498,-8.175781 -3.9062498,-13.375 0,-4.695312 1.2578128,-8.898437 3.7812498,-12.609374 2.519531,-3.71875 6.144531,-6.640625 10.875,-8.765625 4.738281,-2.132812 10.265624,-3.203125 16.578124,-3.203125 3.925781,0 7.40625,0.296875 10.4375,0.890625 3.03125,0.59375 6.460937,1.40625 10.296875,2.4375 1.707031,0.59375 3.160156,0.980469 4.359374,1.15625 l -0.765625,21.499999 H 56.70205 l -2.5625,-15.749999 c -0.855469,-0.851563 -2.625,-1.660156 -5.3125,-2.421875 -2.6875,-0.769531 -5.609375,-1.15625 -8.765625,-1.15625 -5.886718,0 -10.343749,1.242187 -13.374999,3.71875 -3.03125,2.46875 -4.546875,6.046875 -4.546875,10.734374 0,3.417969 0.914062,6.28125 2.75,8.59375 1.832031,2.304688 4.113281,4.265625 6.843749,5.890625 2.738282,1.617187 7.09375,3.828125 13.0625,6.640625 5.550781,2.648437 10.070312,5.039062 13.5625,7.171875 3.5,2.136718 6.507812,4.933593 9.031249,8.390624 2.519532,3.449219 3.78125,7.5625 3.78125,12.34375 0,4.523437 -1.261718,8.875 -3.78125,13.062499 C 64.866112,-8.7421811 61.022362,-5.3124937 55.8583,-2.6249938 50.70205,0.06250608 44.455956,1.406256 37.123925,1.406256 Z m 55.031249,30.468749 c -1.449219,0 -2.875,-0.08984 -4.28125,-0.265625 -1.40625,-0.167969 -2.414063,-0.421875 -3.015625,-0.765625 v -11.125 c 0.507812,0.332032 1.507812,0.582032 3,0.75 1.5,0.175782 2.929687,0.265625 4.296875,0.265625 4.093749,0 7.695312,-1.433593 10.812496,-4.296874 3.11328,-2.855469 6.125,-8.3359377 9.03125,-16.4374999178748 H 105.8583 L 81.530174,-63.359367 75.639549,-65.031242 v -6.015625 h 30.859371 v 6.015625 l -9.859372,1.546875 12.546872,37.749999 5.89063,18.6874993 5.5,-18.8124993 11.39062,-37.624999 -8.57812,-1.546875 v -6.015625 h 25.73437 v 6.015625 l -6.40625,1.546875 c -12.54297,38.398436 -19.92187,60.1992169 -22.14062,65.406248 -2.90625,7.332031 -5.55469,13.066406 -7.9375,17.203124 -2.38672,4.144532 -5.20313,7.304688 -8.45313,9.484375 -3.24218,2.175781 -7.249997,3.265625 -12.031246,3.265625 z m 74.749996,-42.109374 c 0.85156,1.2812504 2.66406,2.4335941 5.4375,3.4531253 2.78125,1.0234375 5.70703,1.53125 8.78125,1.53125 4.86328,0 8.44531,-0.9375 10.75,-2.8125 2.30078,-1.8749999 3.45313,-4.4765623 3.45313,-7.8124993 0,-2.300782 -0.72657,-4.304688 -2.17188,-6.015625 -1.44922,-1.707031 -3.47656,-3.222656 -6.07812,-4.546875 -2.60547,-1.320313 -6.33985,-2.921875 -11.20313,-4.796875 -6.57422,-2.46875 -11.375,-5.429687 -14.40625,-8.890625 -3.02344,-3.457031 -4.53125,-8.003906 -4.53125,-13.640624 0,-3.75 1.12891,-7.03125 3.39063,-9.84375 2.25781,-2.820312 5.375,-5.019531 9.34375,-6.59375 3.96875,-1.582031 8.3789,-2.375 13.23437,-2.375 3.92578,0 7.36328,0.304688 10.3125,0.90625 2.94531,0.59375 5.31641,1.195313 7.10938,1.796875 1.78906,0.59375 2.98437,0.976563 3.57812,1.140625 v 15.875 h -7.8125 l -2.5625,-9.484375 c -0.51172,-1.019531 -1.875,-1.890625 -4.09375,-2.609375 -2.21875,-0.726562 -4.69531,-1.09375 -7.42187,-1.09375 -3.83594,0 -6.92969,0.855469 -9.28125,2.5625 -2.34375,1.710938 -3.51563,4.011719 -3.51563,6.90625 0,2.5625 0.61719,4.679687 1.85938,6.34375 1.23828,1.65625 2.79687,3 4.67187,4.03125 1.875,1.023437 4.42969,2.214843 7.67188,3.578124 l 2.5625,1.03125 c 4.78125,1.875 8.66015,3.667969 11.64062,5.375 2.98828,1.710938 5.48437,3.949219 7.48437,6.71875 2.00782,2.773437 3.01563,6.164062 3.01563,10.171875 0,6.312499 -2.45313,11.3515618 -7.35937,15.1093742 -4.90625,3.7499999 -11.625,5.6249998 -20.15625,5.6249998 -4.17969,0 -8.55469,-0.57421869 -13.125,-1.71874991 -4.5625,-1.15624999 -8.29297,-2.33203119 -11.1875,-3.53124989 V -20.218743 h 8.3125 z m 74.625,11.515625 c -4.85547,0 -8.48047,-1.10937492 -10.875,-3.3281249 -2.38672,-2.2187499 -3.57813,-6.0156248 -3.57813,-11.3906241 v -49.156249 h -9.21875 v -5.765625 c 0.42579,-0.08203 1.61719,-0.378906 3.57813,-0.890625 1.96875,-0.507812 3.28906,-0.976562 3.96875,-1.40625 1.36328,-0.769531 2.42969,-2.304687 3.20312,-4.609375 0.6875,-1.624999 1.5,-4.226562 2.4375,-7.812499 0.9375,-3.582031 1.48829,-5.710938 1.65625,-6.390625 h 7.5625 l 0.25,18.421874 h 21.375 v 8.453125 h -21.375 v 39.296874 c 0,4.867187 0.14454,8.28125 0.4375,10.249999 0.30079,1.960938 0.94141,3.2421879 1.92188,3.8437504 0.98828,0.59375 2.67578,0.8906249 5.0625,0.8906249 2.30078,0 4.83594,-0.2968749 7.60937,-0.8906249 2.78125,-0.6015625 4.9375,-1.2500004 6.46875,-1.9375004 l 1.92188,5.7656253 c -2.05469,1.5312499 -5.35938,3.0273436 -9.92188,4.48437481 -4.5625,1.44531245 -8.72656,2.17187489 -12.48437,2.17187489 z m 61.70312,0.125 c -10.32422,0 -18.19922,-3.3671874 -23.625,-10.1093746 -5.41797,-6.7382814 -8.125,-15.7421874 -8.125,-27.0156244 0,-7.414062 1.40625,-13.941406 4.21875,-19.578124 2.82032,-5.632812 6.76953,-9.984375 11.84375,-13.046875 5.08203,-3.070312 10.86328,-4.609375 17.34375,-4.609375 7.9375,0 14.10156,2.199219 18.5,6.59375 4.39453,4.386719 6.72266,10.679687 6.98438,18.875 0,5.199218 -0.30469,9.167968 -0.90625,11.906249 h -44.03125 c 0.17578,8.449219 2.14062,15.257812 5.89062,20.421875 3.75,5.1562494 9.08203,7.7343743 16,7.7343743 3.41406,0 6.97656,-0.6171875 10.6875,-1.8593749 3.70703,-1.2382814 6.58594,-2.7109374 8.64063,-4.4218744 l 2.4375,5.6406243 c -2.48047,2.5625 -6.15235,4.7812499 -11.01563,6.6562498 -4.86719,1.87499997 -9.8125,2.8124999 -14.84375,2.8124999 z m 13.04688,-43.781249 c 0.25781,-1.789062 0.39062,-3.624999 0.39062,-5.499999 -0.0859,-5.539063 -1.25781,-9.910156 -3.51562,-13.109375 -2.26172,-3.207031 -5.82422,-4.8125 -10.6875,-4.8125 -4.94922,0 -8.89844,1.792969 -11.84375,5.375 -2.94922,3.585937 -4.63672,9.601562 -5.0625,18.046874 z m 24.96093,36.1093743 7.8125,-1.15625 V -61.187492 l -9.21875,-2.296875 v -6.921875 l 18.3125,-2.296875 2.29688,1.65625 0.76562,5.125 -0.125,4.09375 c 2.98828,-2.726562 7.0625,-5.222656 12.21875,-7.484375 5.16406,-2.257812 9.79688,-3.390625 13.89063,-3.390625 4.61328,0 8.32812,0.773438 11.14062,2.3125 2.8125,1.53125 4.94531,3.917969 6.40625,7.15625 2.72656,-2.300781 6.54688,-4.453125 11.45313,-6.453125 4.90625,-2.007812 9.49218,-3.015625 13.76562,-3.015625 5.28125,0 9.41406,1.007813 12.40625,3.015625 2.98828,2 5.09766,5.117188 6.32812,9.34375 1.23829,4.21875 1.85938,9.871093 1.85938,16.953124 v 35.9687493 l 9.21875,1.15625 V 6.0821252e-6 H 429.31923 V -6.2656187 l 7.92187,-1.15625 V -43.015618 c 0,-4.945312 -0.36719,-8.890624 -1.09375,-11.828124 -0.71875,-2.945313 -2.08594,-5.144531 -4.09375,-6.59375 -2,-1.445312 -4.875,-2.171875 -8.625,-2.171875 -2.82422,0 -5.8125,0.621094 -8.96875,1.859375 -3.15625,1.230469 -5.84375,2.699219 -8.0625,4.40625 0.76953,3.324219 1.15625,8.058593 1.15625,14.203124 v 35.7187493 l 9.09375,1.15625 V 6.0821252e-6 H 385.66298 V -6.2656187 l 8.45312,-1.15625 V -43.265618 c 0,-5.113281 -0.32422,-9.078124 -0.96875,-11.890624 -0.63672,-2.820313 -1.85156,-4.9375 -3.64062,-6.34375 -1.79297,-1.40625 -4.52344,-2.109375 -8.1875,-2.109375 -3.07422,0 -6.33985,0.765625 -9.79688,2.296875 -3.46094,1.53125 -6.46875,3.324219 -9.03125,5.375 v 48.5156233 l 8.57813,1.15625 V 6.0821252e-6 H 341.2411 Z m 139.39062,-3.9687503 c 0.85157,1.2812504 2.66407,2.4335941 5.4375,3.4531253 2.78125,1.0234375 5.70703,1.53125 8.78125,1.53125 4.86328,0 8.44532,-0.9375 10.75,-2.8125 2.30078,-1.8749999 3.45313,-4.4765623 3.45313,-7.8124993 0,-2.300782 -0.72656,-4.304688 -2.17188,-6.015625 -1.44922,-1.707031 -3.47656,-3.222656 -6.07812,-4.546875 -2.60547,-1.320313 -6.33985,-2.921875 -11.20313,-4.796875 -6.57422,-2.46875 -11.375,-5.429687 -14.40625,-8.890625 -3.02343,-3.457031 -4.53125,-8.003906 -4.53125,-13.640624 0,-3.75 1.12891,-7.03125 3.39063,-9.84375 2.25781,-2.820312 5.375,-5.019531 9.34375,-6.59375 3.96875,-1.582031 8.3789,-2.375 13.23437,-2.375 3.92578,0 7.36328,0.304688 10.3125,0.90625 2.94532,0.59375 5.31641,1.195313 7.10938,1.796875 1.78906,0.59375 2.98437,0.976563 3.57812,1.140625 v 15.875 h -7.8125 l -2.5625,-9.484375 c -0.51172,-1.019531 -1.875,-1.890625 -4.09375,-2.609375 -2.21875,-0.726562 -4.69531,-1.09375 -7.42187,-1.09375 -3.83594,0 -6.92969,0.855469 -9.28125,2.5625 -2.34375,1.710938 -3.51563,4.011719 -3.51563,6.90625 0,2.5625 0.61719,4.679687 1.85938,6.34375 1.23828,1.65625 2.79687,3 4.67187,4.03125 1.875,1.023437 4.42969,2.214843 7.67188,3.578124 l 2.5625,1.03125 c 4.78125,1.875 8.66015,3.667969 11.64062,5.375 2.98828,1.710938 5.48438,3.949219 7.48438,6.71875 2.00781,2.773437 3.01562,6.164062 3.01562,10.171875 0,6.312499 -2.45312,11.3515618 -7.35937,15.1093742 -4.90625,3.7499999 -11.625,5.6249998 -20.15625,5.6249998 -4.17969,0 -8.55469,-0.57421869 -13.125,-1.71874991 -4.5625,-1.15624999 -8.29297,-2.33203119 -11.1875,-3.53124989 V -20.218743 h 8.3125 z M 543.8661,1.281256 c -2.21875,0 -4.14063,-0.76562493 -5.76563,-2.2968749 -1.61719,-1.5390624 -2.42187,-3.5039061 -2.42187,-5.8906248 0,-2.6445312 0.95703,-4.8632813 2.875,-6.6562493 1.92578,-1.789063 4.16406,-2.6875 6.71875,-2.6875 2.64453,0 4.67187,0.792968 6.07812,2.375 1.41406,1.574218 2.125,3.511718 2.125,5.8124993 0,2.8125 -0.94531,5.0742186 -2.82812,6.7812498 -1.875,1.70703122 -4.13672,2.5624999 -6.78125,2.5624999 z m 0,0"
       style="fill:#000000;fill-opacity:1;fill-rule:nonzero;stroke:none"
       aria-label="Systems."
       transform="matrix(0.26458333,0,0,0.26458333,14.194656,130.88664)"
       clip-path="url(#clipPath8-2-3)" />
    <path
       id="path9"
       d="m 47291,67952 h 8280 v 11568 h -8280 z"
       style="fill:#ffffff;fill-opacity:1;fill-rule:evenodd;stroke:none"
       transform="matrix(6.9444393e-4,0,0,6.9444393e-4,-14.769234,26.145753)"
       clip-path="url(#clipPath10-1-6)" />
    <path
       id="path11"
       d="m 64172,80474 v 0 c 0,-1607.15 1351.203,-2910 3018,-2910 v 0 c 800.42,0 1568.06,306.586 2134.05,852.32 565.98,545.73 883.95,1285.9 883.95,2057.68 v 0 c 0,1607.15 -1351.2,2910 -3018,2910 v 0 c -1666.797,0 -3018,-1302.85 -3018,-2910 z"
       style="fill:#eeeeee;fill-opacity:1;fill-rule:evenodd;stroke:#ffffff;stroke-width:381;stroke-linecap:butt;stroke-linejoin:round;stroke-miterlimit:8;stroke-dasharray:none;stroke-opacity:1"
       transform="matrix(6.9444393e-4,0,0,6.9444393e-4,-14.769234,26.145753)"
       clip-path="url(#clipPath12-7-9)" />
    <path
       id="path13"
       d="m 46410,80474 v 0 c 0,-1607.15 1351.203,-2910 3018,-2910 v 0 c 800.42,0 1568.062,306.586 2134.047,852.32 565.983,545.73 883.953,1285.9 883.953,2057.68 v 0 c 0,1607.15 -1351.203,2910 -3018,2910 v 0 c -1666.797,0 -3018,-1302.85 -3018,-2910 z"
       style="fill:#eeeeee;fill-opacity:1;fill-rule:evenodd;stroke:#ffffff;stroke-width:381;stroke-linecap:butt;stroke-linejoin:round;stroke-miterlimit:8;stroke-dasharray:none;stroke-opacity:1"
       transform="matrix(6.9444393e-4,0,0,6.9444393e-4,-14.769234,26.145753)"
       clip-path="url(#clipPath14-9-2)" />
    <path
       id="path15"
       d="m 55571,57169 v 0 c 0,-1607.15 1351.203,-2910 3018,-2910 v 0 c 800.42,0 1568.062,306.59 2134.047,852.32 565.983,545.73 883.953,1285.9 883.953,2057.68 v 0 c 0,1607.15 -1351.203,2910 -3018,2910 v 0 c -1666.797,0 -3018,-1302.85 -3018,-2910 z"
       style="fill:#eeeeee;fill-opacity:1;fill-rule:evenodd;stroke:#ffffff;stroke-width:381;stroke-linecap:butt;stroke-linejoin:round;stroke-miterlimit:8;stroke-dasharray:none;stroke-opacity:1"
       transform="matrix(6.9444393e-4,0,0,6.9444393e-4,-14.769234,26.145753)"
       clip-path="url(#clipPath16-6-0)" />
    <path
       id="path17"
       d="m 47580,80474 v 0 c 0,-1007.37 827.38,-1824 1848,-1824 v 0 c 490.12,0 960.168,192.17 1306.734,534.234 C 51081.3,79526.305 51276,79990.24 51276,80474 v 0 c 0,1007.37 -827.38,1824 -1848,1824 v 0 c -1020.62,0 -1848,-816.63 -1848,-1824 z"
       style="fill:#ffffff;fill-opacity:1;fill-rule:evenodd;stroke:#000000;stroke-width:1143;stroke-linecap:butt;stroke-linejoin:round;stroke-miterlimit:8;stroke-dasharray:none;stroke-opacity:1"
       transform="matrix(6.9444393e-4,0,0,6.9444393e-4,-14.769234,26.145753)"
       clip-path="url(#clipPath18-6-3)" />
    <path
       id="path19"
       d="m 65342,80474 v 0 c 0,-1007.37 827.375,-1824 1848,-1824 v 0 c 490.12,0 960.164,192.17 1306.734,534.234 C 68843.3,79526.305 69038,79990.24 69038,80474 v 0 c 0,1007.37 -827.375,1824 -1848,1824 v 0 c -1020.625,0 -1848,-816.63 -1848,-1824 z"
       style="fill:#ffffff;fill-opacity:1;fill-rule:evenodd;stroke:#000000;stroke-width:1143;stroke-linecap:butt;stroke-linejoin:round;stroke-miterlimit:8;stroke-dasharray:none;stroke-opacity:1"
       transform="matrix(6.9444393e-4,0,0,6.9444393e-4,-14.769234,26.145753)"
       clip-path="url(#clipPath20-6-0)" />
    <path
       id="path21"
       d="m 56741,57169 v 0 c 0,-1007.367 827.38,-1824 1848,-1824 v 0 c 490.12,0 960.168,192.17 1306.734,534.24 346.566,342.065 541.266,806.006 541.266,1289.76 v 0 c 0,1007.367 -827.38,1824 -1848,1824 v 0 c -1020.62,0 -1848,-816.633 -1848,-1824 z"
       style="fill:#ffffff;fill-opacity:1;fill-rule:evenodd;stroke:#000000;stroke-width:1143;stroke-linecap:butt;stroke-linejoin:round;stroke-miterlimit:8;stroke-dasharray:none;stroke-opacity:1"
       transform="matrix(6.9444393e-4,0,0,6.9444393e-4,-14.769234,26.145753)"
       clip-path="url(#clipPath22-8-2)" />
    <path
       id="path23"
       d="m 49816,69364.5 v 0 c 0,-1607.15 1351.203,-2910 3018,-2910 v 0 c 800.42,0 1568.062,306.586 2134.047,852.32 565.983,545.73 883.953,1285.9 883.953,2057.68 v 0 c 0,1607.15 -1351.203,2910 -3018,2910 v 0 c -1666.797,0 -3018,-1302.85 -3018,-2910 z"
       style="fill:#eeeeee;fill-opacity:1;fill-rule:evenodd;stroke:#ffffff;stroke-width:381;stroke-linecap:butt;stroke-linejoin:round;stroke-miterlimit:8;stroke-dasharray:none;stroke-opacity:1"
       transform="matrix(6.9444393e-4,0,0,6.9444393e-4,-14.769234,26.145753)"
       clip-path="url(#clipPath24-9-1)" />
    <path
       id="path25"
       d="m 50986,69364.5 v 0 c 0,-1007.37 827.38,-1824 1848,-1824 v 0 c 490.12,0 960.168,192.17 1306.734,534.234 346.566,342.071 541.266,806.006 541.266,1289.766 v 0 c 0,1007.37 -827.38,1824 -1848,1824 v 0 c -1020.62,0 -1848,-816.63 -1848,-1824 z"
       style="fill:#ffffff;fill-opacity:1;fill-rule:evenodd;stroke:#000000;stroke-width:1143;stroke-linecap:butt;stroke-linejoin:round;stroke-miterlimit:8;stroke-dasharray:none;stroke-opacity:1"
       transform="matrix(6.9444393e-4,0,0,6.9444393e-4,-14.769234,26.145753)"
       clip-path="url(#clipPath26-0-7)" />
    <path
       id="path27"
       d="m 46448.78,71231.71 2868.47,-1163.21 v 0 c 375.777,-152.38 833.688,102.695 1022.766,569.73 189.082,467.03 37.734,969.17 -338.043,1121.55 L 47133.5,72922.99 v 0 c -375.777,152.385 -833.684,-102.685 -1022.76,-569.724 -189.084,-467.032 -37.736,-969.176 338.04,-1121.556 z"
       style="fill:#000000;fill-opacity:1;fill-rule:evenodd;stroke:#000000;stroke-width:381;stroke-linecap:butt;stroke-linejoin:round;stroke-miterlimit:8;stroke-dasharray:none;stroke-opacity:1"
       transform="matrix(6.9444393e-4,0,0,6.9444393e-4,-14.769234,26.145753)"
       clip-path="url(#clipPath28-3-2)" />
    <path
       id="path29"
       d="m 47233.18,65845.836 2784.965,1353.654 v 0 c 364.839,177.34 481.205,688.58 259.917,1141.89 -221.289,453.315 -696.437,677.04 -1061.277,499.71 L 46431.82,67487.43 v 0 c -364.836,-177.33 -481.207,-688.57 -259.918,-1141.89 221.288,-453.31 696.442,-677.04 1061.278,-499.704 z"
       style="fill:#000000;fill-opacity:1;fill-rule:evenodd;stroke:#000000;stroke-width:381;stroke-linecap:butt;stroke-linejoin:round;stroke-miterlimit:8;stroke-dasharray:none;stroke-opacity:1"
       transform="matrix(6.9444393e-4,0,0,6.9444393e-4,-14.769234,26.145753)"
       clip-path="url(#clipPath30-5-2)" />
    <path
       id="path31"
       d="m 45062.15,67163.39 1463.534,-1324.36 v 0 c 191.726,-173.49 621.316,-10.475 959.511,364.1 338.2,374.59 456.935,818.886 265.207,992.386 l -1463.535,1324.359 v 0 c -191.727,173.495 -621.312,10.485 -959.512,-364.105 -338.195,-374.575 -456.935,-818.88 -265.205,-992.38 z"
       style="fill:#000000;fill-opacity:1;fill-rule:evenodd;stroke:#000000;stroke-width:381;stroke-linecap:butt;stroke-linejoin:round;stroke-miterlimit:8;stroke-dasharray:none;stroke-opacity:1"
       transform="matrix(6.9444393e-4,0,0,6.9444393e-4,-14.769234,26.145753)"
       clip-path="url(#clipPath32-2-7)" />
    <path
       id="path33"
       d="m 46444.176,72839.516 -1397.614,-1394.68 v 0 c -183.089,-182.706 -42.359,-619.966 314.328,-976.656 356.69,-356.69 794.262,-497.73 977.356,-315.02 l 1397.609,1394.676 v 0 c 183.09,182.714 42.365,619.974 -314.325,976.664 -356.69,356.69 -794.264,497.73 -977.354,315.016 z"
       style="fill:#000000;fill-opacity:1;fill-rule:evenodd;stroke:#000000;stroke-width:381;stroke-linecap:butt;stroke-linejoin:round;stroke-miterlimit:8;stroke-dasharray:none;stroke-opacity:1"
       transform="matrix(6.9444393e-4,0,0,6.9444393e-4,-14.769234,26.145753)"
       clip-path="url(#clipPath34-8-9)" />
  </g>
</svg>
