<?xml version="1.0" encoding="UTF-8" standalone="no"?>
<!-- Created with Inkscape (http://www.inkscape.org/) -->

<svg
   width="25.466145mm"
   height="26.552935mm"
   viewBox="0 0 25.466145 26.552935"
   version="1.1"
   id="svg1"
   sodipodi:docname="Articulated_Systems_A_logo.svg"
   inkscape:version="1.3.1 (9b9bdc1480, 2023-11-25, custom)"
   xmlns:inkscape="http://www.inkscape.org/namespaces/inkscape"
   xmlns:sodipodi="http://sodipodi.sourceforge.net/DTD/sodipodi-0.dtd"
   xmlns="http://www.w3.org/2000/svg"
   xmlns:svg="http://www.w3.org/2000/svg">
  <sodipodi:namedview
     id="namedview1"
     pagecolor="#ffffff"
     bordercolor="#000000"
     borderopacity="0.25"
     inkscape:showpageshadow="2"
     inkscape:pageopacity="0.0"
     inkscape:pagecheckerboard="0"
     inkscape:deskcolor="#d1d1d1"
     inkscape:document-units="mm"
     inkscape:zoom="0.74297138"
     inkscape:cx="244.96233"
     inkscape:cy="300.14615"
     inkscape:window-width="1848"
     inkscape:window-height="1016"
     inkscape:window-x="1992"
     inkscape:window-y="27"
     inkscape:window-maximized="1"
     inkscape:current-layer="layer1"
     showgrid="false" />
  <defs
     id="defs1">
    <clipPath
       clipPathUnits="userSpaceOnUse"
       id="clipPath6-5">
      <path
         d="M 0,0 H 365760 V 205740 H 0 Z"
         transform="matrix(0.00262467,0,0,0.00262467,-109.46982,-242.27108)"
         id="path6-6" />
    </clipPath>
    <clipPath
       clipPathUnits="userSpaceOnUse"
       id="clipPath8-2">
      <path
         d="M 0,0 H 365760 V 205740 H 0 Z"
         transform="matrix(0.00262467,0,0,0.00262467,-109.46982,-395.87109)"
         id="path8-9" />
    </clipPath>
    <clipPath
       clipPathUnits="userSpaceOnUse"
       id="clipPath10-1">
      <path
         d="M 0,0 H 365760 V 205740 H 0 Z"
         id="path10-2" />
    </clipPath>
    <clipPath
       clipPathUnits="userSpaceOnUse"
       id="clipPath12-7">
      <path
         d="M 0,0 H 365760 V 205740 H 0 Z"
         id="path12-0" />
    </clipPath>
    <clipPath
       clipPathUnits="userSpaceOnUse"
       id="clipPath14-9">
      <path
         d="M 0,0 H 365760 V 205740 H 0 Z"
         id="path14-3" />
    </clipPath>
    <clipPath
       clipPathUnits="userSpaceOnUse"
       id="clipPath16-6">
      <path
         d="M 0,0 H 365760 V 205740 H 0 Z"
         id="path16-0" />
    </clipPath>
    <clipPath
       clipPathUnits="userSpaceOnUse"
       id="clipPath18-6">
      <path
         d="M 0,0 H 365760 V 205740 H 0 Z"
         id="path18-2" />
    </clipPath>
    <clipPath
       clipPathUnits="userSpaceOnUse"
       id="clipPath20-6">
      <path
         d="M 0,0 H 365760 V 205740 H 0 Z"
         id="path20-1" />
    </clipPath>
    <clipPath
       clipPathUnits="userSpaceOnUse"
       id="clipPath22-8">
      <path
         d="M 0,0 H 365760 V 205740 H 0 Z"
         id="path22-7" />
    </clipPath>
    <clipPath
       clipPathUnits="userSpaceOnUse"
       id="clipPath24-9">
      <path
         d="M 0,0 H 365760 V 205740 H 0 Z"
         id="path24-2" />
    </clipPath>
    <clipPath
       clipPathUnits="userSpaceOnUse"
       id="clipPath26-0">
      <path
         d="M 0,0 H 365760 V 205740 H 0 Z"
         id="path26-2" />
    </clipPath>
    <clipPath
       clipPathUnits="userSpaceOnUse"
       id="clipPath28-3">
      <path
         d="M 0,0 H 365760 V 205740 H 0 Z"
         id="path28-7" />
    </clipPath>
    <clipPath
       clipPathUnits="userSpaceOnUse"
       id="clipPath30-5">
      <path
         d="M 0,0 H 365760 V 205740 H 0 Z"
         id="path30-9" />
    </clipPath>
    <clipPath
       clipPathUnits="userSpaceOnUse"
       id="clipPath32-2">
      <path
         d="M 0,0 H 365760 V 205740 H 0 Z"
         id="path32-2" />
    </clipPath>
    <clipPath
       clipPathUnits="userSpaceOnUse"
       id="clipPath34-8">
      <path
         d="M 0,0 H 365760 V 205740 H 0 Z"
         id="path34-9" />
    </clipPath>
    <clipPath
       clipPathUnits="userSpaceOnUse"
       id="clipPath6-5-7">
      <path
         d="M 0,0 H 365760 V 205740 H 0 Z"
         transform="matrix(0.00262467,0,0,0.00262467,-109.46982,-242.27108)"
         id="path6-6-3" />
    </clipPath>
    <clipPath
       clipPathUnits="userSpaceOnUse"
       id="clipPath10-1-6">
      <path
         d="M 0,0 H 365760 V 205740 H 0 Z"
         id="path10-2-1" />
    </clipPath>
    <clipPath
       clipPathUnits="userSpaceOnUse"
       id="clipPath12-7-2">
      <path
         d="M 0,0 H 365760 V 205740 H 0 Z"
         id="path12-0-9" />
    </clipPath>
    <clipPath
       clipPathUnits="userSpaceOnUse"
       id="clipPath14-9-3">
      <path
         d="M 0,0 H 365760 V 205740 H 0 Z"
         id="path14-3-1" />
    </clipPath>
    <clipPath
       clipPathUnits="userSpaceOnUse"
       id="clipPath16-6-9">
      <path
         d="M 0,0 H 365760 V 205740 H 0 Z"
         id="path16-0-4" />
    </clipPath>
    <clipPath
       clipPathUnits="userSpaceOnUse"
       id="clipPath18-6-7">
      <path
         d="M 0,0 H 365760 V 205740 H 0 Z"
         id="path18-2-8" />
    </clipPath>
    <clipPath
       clipPathUnits="userSpaceOnUse"
       id="clipPath20-6-4">
      <path
         d="M 0,0 H 365760 V 205740 H 0 Z"
         id="path20-1-5" />
    </clipPath>
    <clipPath
       clipPathUnits="userSpaceOnUse"
       id="clipPath22-8-0">
      <path
         d="M 0,0 H 365760 V 205740 H 0 Z"
         id="path22-7-3" />
    </clipPath>
    <clipPath
       clipPathUnits="userSpaceOnUse"
       id="clipPath24-9-6">
      <path
         d="M 0,0 H 365760 V 205740 H 0 Z"
         id="path24-2-1" />
    </clipPath>
    <clipPath
       clipPathUnits="userSpaceOnUse"
       id="clipPath26-0-0">
      <path
         d="M 0,0 H 365760 V 205740 H 0 Z"
         id="path26-2-6" />
    </clipPath>
    <clipPath
       clipPathUnits="userSpaceOnUse"
       id="clipPath28-3-3">
      <path
         d="M 0,0 H 365760 V 205740 H 0 Z"
         id="path28-7-2" />
    </clipPath>
    <clipPath
       clipPathUnits="userSpaceOnUse"
       id="clipPath30-5-0">
      <path
         d="M 0,0 H 365760 V 205740 H 0 Z"
         id="path30-9-6" />
    </clipPath>
    <clipPath
       clipPathUnits="userSpaceOnUse"
       id="clipPath32-2-1">
      <path
         d="M 0,0 H 365760 V 205740 H 0 Z"
         id="path32-2-5" />
    </clipPath>
    <clipPath
       clipPathUnits="userSpaceOnUse"
       id="clipPath34-8-5">
      <path
         d="M 0,0 H 365760 V 205740 H 0 Z"
         id="path34-9-4" />
    </clipPath>
  </defs>
  <g
     inkscape:label="Layer 1"
     inkscape:groupmode="layer"
     id="layer1"
     transform="translate(-40.216666,-69.05625)">
    <path
       id="path5"
       d="M 37.123925,-95.876548 H 51.20205 l 31.093749,88.3281217 7.9375,1.28125 v 6.2656248 H 56.45205 v -6.2656248 l 10.624999,-1.28125 -6.015624,-18.9531247 H 23.686426 l -6.03125,18.9531247 11.015625,1.28125 v 6.2656248 H -1.6573234 v -6.2656248 l 7.9218747,-1.28125 z m 8.0625,20.484374 -3.203125,-11.265625 -3.078125,11.515625 -12.921874,41.093749 h 32.640624 z m 49.406248,69.1249977 v 6.2656248 z"
       style="fill:#000000;fill-opacity:1;fill-rule:nonzero;stroke:none"
       aria-label="Articulated "
       transform="matrix(0.26458333,0,0,0.26458333,40.655166,95.609594)"
       clip-path="url(#clipPath6-5-7)"
       sodipodi:nodetypes="cccccccccccccccccccccccccc" />
    <path
       id="path9"
       d="m 47291,67952 h 8280 v 11568 h -8280 z"
       style="fill:#ffffff;fill-opacity:1;fill-rule:evenodd;stroke:none"
       transform="matrix(6.9444393e-4,0,0,6.9444393e-4,11.691276,31.508708)"
       clip-path="url(#clipPath10-1-6)" />
    <path
       id="path11"
       d="m 64172,80474 v 0 c 0,-1607.15 1351.203,-2910 3018,-2910 v 0 c 800.42,0 1568.06,306.586 2134.05,852.32 565.98,545.73 883.95,1285.9 883.95,2057.68 v 0 c 0,1607.15 -1351.2,2910 -3018,2910 v 0 c -1666.797,0 -3018,-1302.85 -3018,-2910 z"
       style="fill:#eeeeee;fill-opacity:1;fill-rule:evenodd;stroke:#ffffff;stroke-width:381;stroke-linecap:butt;stroke-linejoin:round;stroke-miterlimit:8;stroke-dasharray:none;stroke-opacity:1"
       transform="matrix(6.9444393e-4,0,0,6.9444393e-4,11.691276,31.508708)"
       clip-path="url(#clipPath12-7-2)" />
    <path
       id="path13"
       d="m 46410,80474 v 0 c 0,-1607.15 1351.203,-2910 3018,-2910 v 0 c 800.42,0 1568.062,306.586 2134.047,852.32 565.983,545.73 883.953,1285.9 883.953,2057.68 v 0 c 0,1607.15 -1351.203,2910 -3018,2910 v 0 c -1666.797,0 -3018,-1302.85 -3018,-2910 z"
       style="fill:#eeeeee;fill-opacity:1;fill-rule:evenodd;stroke:#ffffff;stroke-width:381;stroke-linecap:butt;stroke-linejoin:round;stroke-miterlimit:8;stroke-dasharray:none;stroke-opacity:1"
       transform="matrix(6.9444393e-4,0,0,6.9444393e-4,11.691276,31.508708)"
       clip-path="url(#clipPath14-9-3)" />
    <path
       id="path15"
       d="m 55571,57169 v 0 c 0,-1607.15 1351.203,-2910 3018,-2910 v 0 c 800.42,0 1568.062,306.59 2134.047,852.32 565.983,545.73 883.953,1285.9 883.953,2057.68 v 0 c 0,1607.15 -1351.203,2910 -3018,2910 v 0 c -1666.797,0 -3018,-1302.85 -3018,-2910 z"
       style="fill:#eeeeee;fill-opacity:1;fill-rule:evenodd;stroke:#ffffff;stroke-width:381;stroke-linecap:butt;stroke-linejoin:round;stroke-miterlimit:8;stroke-dasharray:none;stroke-opacity:1"
       transform="matrix(6.9444393e-4,0,0,6.9444393e-4,11.691276,31.508708)"
       clip-path="url(#clipPath16-6-9)" />
    <path
       id="path17"
       d="m 47580,80474 v 0 c 0,-1007.37 827.38,-1824 1848,-1824 v 0 c 490.12,0 960.168,192.17 1306.734,534.234 C 51081.3,79526.305 51276,79990.24 51276,80474 v 0 c 0,1007.37 -827.38,1824 -1848,1824 v 0 c -1020.62,0 -1848,-816.63 -1848,-1824 z"
       style="fill:#ffffff;fill-opacity:1;fill-rule:evenodd;stroke:#000000;stroke-width:1143;stroke-linecap:butt;stroke-linejoin:round;stroke-miterlimit:8;stroke-dasharray:none;stroke-opacity:1"
       transform="matrix(6.9444393e-4,0,0,6.9444393e-4,11.691276,31.508708)"
       clip-path="url(#clipPath18-6-7)" />
    <path
       id="path19"
       d="m 65342,80474 v 0 c 0,-1007.37 827.375,-1824 1848,-1824 v 0 c 490.12,0 960.164,192.17 1306.734,534.234 C 68843.3,79526.305 69038,79990.24 69038,80474 v 0 c 0,1007.37 -827.375,1824 -1848,1824 v 0 c -1020.625,0 -1848,-816.63 -1848,-1824 z"
       style="fill:#ffffff;fill-opacity:1;fill-rule:evenodd;stroke:#000000;stroke-width:1143;stroke-linecap:butt;stroke-linejoin:round;stroke-miterlimit:8;stroke-dasharray:none;stroke-opacity:1"
       transform="matrix(6.9444393e-4,0,0,6.9444393e-4,11.691276,31.508708)"
       clip-path="url(#clipPath20-6-4)" />
    <path
       id="path21"
       d="m 56741,57169 v 0 c 0,-1007.367 827.38,-1824 1848,-1824 v 0 c 490.12,0 960.168,192.17 1306.734,534.24 346.566,342.065 541.266,806.006 541.266,1289.76 v 0 c 0,1007.367 -827.38,1824 -1848,1824 v 0 c -1020.62,0 -1848,-816.633 -1848,-1824 z"
       style="fill:#ffffff;fill-opacity:1;fill-rule:evenodd;stroke:#000000;stroke-width:1143;stroke-linecap:butt;stroke-linejoin:round;stroke-miterlimit:8;stroke-dasharray:none;stroke-opacity:1"
       transform="matrix(6.9444393e-4,0,0,6.9444393e-4,11.691276,31.508708)"
       clip-path="url(#clipPath22-8-0)" />
    <path
       id="path23"
       d="m 49816,69364.5 v 0 c 0,-1607.15 1351.203,-2910 3018,-2910 v 0 c 800.42,0 1568.062,306.586 2134.047,852.32 565.983,545.73 883.953,1285.9 883.953,2057.68 v 0 c 0,1607.15 -1351.203,2910 -3018,2910 v 0 c -1666.797,0 -3018,-1302.85 -3018,-2910 z"
       style="fill:#eeeeee;fill-opacity:1;fill-rule:evenodd;stroke:#ffffff;stroke-width:381;stroke-linecap:butt;stroke-linejoin:round;stroke-miterlimit:8;stroke-dasharray:none;stroke-opacity:1"
       transform="matrix(6.9444393e-4,0,0,6.9444393e-4,11.691276,31.508708)"
       clip-path="url(#clipPath24-9-6)" />
    <path
       id="path25"
       d="m 50986,69364.5 v 0 c 0,-1007.37 827.38,-1824 1848,-1824 v 0 c 490.12,0 960.168,192.17 1306.734,534.234 346.566,342.071 541.266,806.006 541.266,1289.766 v 0 c 0,1007.37 -827.38,1824 -1848,1824 v 0 c -1020.62,0 -1848,-816.63 -1848,-1824 z"
       style="fill:#ffffff;fill-opacity:1;fill-rule:evenodd;stroke:#000000;stroke-width:1143;stroke-linecap:butt;stroke-linejoin:round;stroke-miterlimit:8;stroke-dasharray:none;stroke-opacity:1"
       transform="matrix(6.9444393e-4,0,0,6.9444393e-4,11.691276,31.508708)"
       clip-path="url(#clipPath26-0-0)" />
    <path
       id="path27"
       d="m 46448.78,71231.71 2868.47,-1163.21 v 0 c 375.777,-152.38 833.688,102.695 1022.766,569.73 189.082,467.03 37.734,969.17 -338.043,1121.55 L 47133.5,72922.99 v 0 c -375.777,152.385 -833.684,-102.685 -1022.76,-569.724 -189.084,-467.032 -37.736,-969.176 338.04,-1121.556 z"
       style="fill:#000000;fill-opacity:1;fill-rule:evenodd;stroke:#000000;stroke-width:381;stroke-linecap:butt;stroke-linejoin:round;stroke-miterlimit:8;stroke-dasharray:none;stroke-opacity:1"
       transform="matrix(6.9444393e-4,0,0,6.9444393e-4,11.691276,31.508708)"
       clip-path="url(#clipPath28-3-3)" />
    <path
       id="path29"
       d="m 47233.18,65845.836 2784.965,1353.654 v 0 c 364.839,177.34 481.205,688.58 259.917,1141.89 -221.289,453.315 -696.437,677.04 -1061.277,499.71 L 46431.82,67487.43 v 0 c -364.836,-177.33 -481.207,-688.57 -259.918,-1141.89 221.288,-453.31 696.442,-677.04 1061.278,-499.704 z"
       style="fill:#000000;fill-opacity:1;fill-rule:evenodd;stroke:#000000;stroke-width:381;stroke-linecap:butt;stroke-linejoin:round;stroke-miterlimit:8;stroke-dasharray:none;stroke-opacity:1"
       transform="matrix(6.9444393e-4,0,0,6.9444393e-4,11.691276,31.508708)"
       clip-path="url(#clipPath30-5-0)" />
    <path
       id="path31"
       d="m 45062.15,67163.39 1463.534,-1324.36 v 0 c 191.726,-173.49 621.316,-10.475 959.511,364.1 338.2,374.59 456.935,818.886 265.207,992.386 l -1463.535,1324.359 v 0 c -191.727,173.495 -621.312,10.485 -959.512,-364.105 -338.195,-374.575 -456.935,-818.88 -265.205,-992.38 z"
       style="fill:#000000;fill-opacity:1;fill-rule:evenodd;stroke:#000000;stroke-width:381;stroke-linecap:butt;stroke-linejoin:round;stroke-miterlimit:8;stroke-dasharray:none;stroke-opacity:1"
       transform="matrix(6.9444393e-4,0,0,6.9444393e-4,11.691276,31.508708)"
       clip-path="url(#clipPath32-2-1)" />
    <path
       id="path33"
       d="m 46444.176,72839.516 -1397.614,-1394.68 v 0 c -183.089,-182.706 -42.359,-619.966 314.328,-976.656 356.69,-356.69 794.262,-497.73 977.356,-315.02 l 1397.609,1394.676 v 0 c 183.09,182.714 42.365,619.974 -314.325,976.664 -356.69,356.69 -794.264,497.73 -977.354,315.016 z"
       style="fill:#000000;fill-opacity:1;fill-rule:evenodd;stroke:#000000;stroke-width:381;stroke-linecap:butt;stroke-linejoin:round;stroke-miterlimit:8;stroke-dasharray:none;stroke-opacity:1"
       transform="matrix(6.9444393e-4,0,0,6.9444393e-4,11.691276,31.508708)"
       clip-path="url(#clipPath34-8-5)" />
  </g>
</svg>
